<svg xmlns="http://www.w3.org/2000/svg" viewBox="0 -0.5 50 50" shape-rendering="crispEdges">
<metadata>Made with Pixels to Svg https://codepen.io/shshaw/pen/XbxvNj</metadata>
<path stroke="#808080" d="M24 2h1M25 3h1M24 4h2M13 5h1M25 5h1M36 5h1M14 6h1M35 6h2M14 7h2M35 7h1M15 8h1M34 8h1M20 10h9M18 11h10M29 11h1M31 11h1M16 12h4M21 12h7M29 12h3M5 13h1M15 13h17M33 13h1M44 13h1M6 14h2M14 14h22M42 14h3M7 15h2M13 15h3M17 15h7M25 15h9M35 15h1M41 15h1M13 16h3M17 16h3M21 16h3M25 16h3M29 16h3M33 16h3M37 16h1M12 17h24M37 17h1M11 18h28M11 19h25M37 19h1M10 20h2M13 20h7M21 20h7M29 20h7M37 20h2M11 21h27M39 21h1M10 22h30M10 23h6M17 23h7M25 23h7M33 23h3M37 23h1M39 23h1M2 24h1M4 24h2M10 24h2M13 24h3M17 24h3M21 24h3M25 24h3M29 24h3M33 24h3M37 24h3M44 24h3M3 25h1M5 25h1M10 25h4M15 25h23M39 25h1M45 25h1M47 25h1M10 26h30M10 27h4M15 27h21M37 27h1M39 27h1M10 28h2M13 28h7M21 28h7M29 28h7M37 28h3M11 29h3M15 29h23M39 29h1M11 30h28M11 31h5M17 31h7M25 31h7M33 31h3M37 31h1M13 32h3M17 32h3M21 32h3M25 32h3M29 32h3M33 32h3M37 32h1M13 33h21M35 33h3M8 34h1M13 34h21M35 34h2M41 34h2M6 35h2M14 35h18M33 35h1M35 35h1M42 35h2M5 36h2M15 36h5M21 36h7M29 36h3M33 36h2M17 37h13M31 37h3M18 38h14M21 39h7M29 39h1M15 41h1M34 41h1M14 42h2M34 42h2M14 43h1M35 43h1M13 44h2M24 44h2M25 45h1M24 46h1M25 47h1" />
<path stroke="#c0c0c0" d="M25 2h1M24 3h1M14 5h1M24 5h1M35 5h1M13 6h1M24 6h2M34 7h1M29 10h1M28 11h1M30 11h1M33 12h1M6 13h1M32 13h1M34 13h1M43 13h1M5 14h1M16 15h1M24 15h1M34 15h1M36 15h1M42 15h1M36 17h1M36 19h1M38 19h1M39 20h1M10 21h1M38 21h1M16 23h1M24 23h1M32 23h1M36 23h1M38 23h1M3 24h1M47 24h1M2 25h1M4 25h1M6 25h1M14 25h1M38 25h1M43 25h2M46 25h1M14 27h1M36 27h1M38 27h1M14 29h1M38 29h1M16 31h1M24 31h1M32 31h1M36 31h1M34 33h1M7 34h1M5 35h1M32 35h1M34 35h1M44 35h1M43 36h1M30 37h1M28 39h1M13 43h1M36 43h1M35 44h1M24 45h1M25 46h1M24 47h1" />
<path stroke="rgba(255,255,255,0.4745098039215686)" d="M34 6h1" />
<path stroke="#3d3d3d" d="M20 12h1M28 12h1M32 12h1M12 16h1M16 16h1M20 16h1M24 16h1M28 16h1M32 16h1M36 16h1M12 20h1M20 20h1M28 20h1M36 20h1M12 24h1M16 24h1M20 24h1M24 24h1M28 24h1M32 24h1M36 24h1M12 28h1M20 28h1M28 28h1M36 28h1M12 32h1M16 32h1M20 32h1M24 32h1M28 32h1M32 32h1M36 32h1M34 34h1M20 36h1M28 36h1M32 36h1M44 36h1M36 44h1" />
<path stroke="rgba(255,255,255,0.4117647058823529)" d="M41 14h1" />
<path stroke="rgba(255,255,255,0.11764705882352941)" d="M5 26h1" />
<path stroke="rgba(255,255,255,0.14901960784313725)" d="M6 26h1" />
<path stroke="rgba(255,255,255,0.2901960784313726)" d="M8 35h1" />
<path stroke="rgba(255,255,255,0.0784313725490196)" d="M13 42h1" />
</svg>