<svg xmlns="http://www.w3.org/2000/svg" viewBox="0 -0.5 50 50" shape-rendering="crispEdges">
<metadata>Made with Pixels to Svg https://codepen.io/shshaw/pen/XbxvNj</metadata>
<path stroke="#808080" d="M30 6h1M31 7h1M22 8h1M30 8h1M39 8h1M22 9h1M39 9h1M22 10h2M38 10h1M23 11h1M29 12h3M33 12h2M25 13h9M35 13h1M24 14h14M46 14h1M15 15h3M23 15h9M33 15h3M37 15h2M45 15h1M17 16h2M22 16h2M25 16h3M29 16h3M33 16h3M37 16h3M43 16h2M21 17h17M39 17h2M20 18h21M20 19h20M41 19h1M21 20h7M29 20h7M37 20h3M41 20h1M19 21h21M41 21h1M19 22h24M13 23h3M19 23h1M21 23h1M23 23h1M25 23h1M27 23h5M33 23h7M41 23h1M45 23h3M14 24h1M19 24h9M29 24h3M33 24h3M37 24h3M41 24h2M46 24h1M19 25h1M23 25h1M27 25h1M29 25h13M19 26h1M21 26h1M23 26h1M25 26h1M27 26h7M35 26h8M29 27h1M31 27h1M33 27h3M37 27h1M39 27h1M41 27h1M15 28h1M17 28h1M19 28h1M23 28h1M25 28h1M27 28h1M29 28h1M31 28h3M35 28h1M37 28h3M41 28h1M31 29h1M36 29h1M40 29h1M13 30h1M15 30h1M19 30h1M23 30h1M27 30h1M31 30h1M35 30h1M40 30h1M43 31h2M15 32h1M19 32h1M23 32h1M27 32h1M31 32h1M35 32h1M45 32h2M8 33h1M40 33h1M5 34h1M7 34h1M11 34h1M15 34h1M17 34h1M19 34h1M23 34h1M25 34h1M27 34h1M31 34h1M33 34h1M35 34h1M3 36h1M7 36h1M11 36h1M15 36h1M17 36h1M19 36h1M23 36h1M25 36h1M27 36h1M31 36h1M33 36h1M35 36h1M0 38h2M3 38h1M7 38h1M11 38h1M15 38h1M19 38h1M23 38h1M27 38h1M31 38h1M35 38h1M39 38h1M45 38h1M3 40h1M7 40h1M11 40h1M15 40h1M19 40h1M23 40h1M27 40h1M31 40h1M35 40h1M39 40h1M44 41h1M0 42h2M3 42h1M7 42h1M9 42h1M11 42h1M15 42h1M17 42h1M19 42h1M23 42h1M25 42h1M27 42h1M31 42h1M33 42h1M35 42h1M39 42h1M41 42h1M45 42h1M46 43h2M3 44h1M7 44h1M9 44h1M11 44h1M15 44h1M17 44h1M19 44h1M23 44h1M25 44h1M27 44h1M31 44h1M33 44h1M35 44h1M39 44h1M41 44h1M44 45h1M5 46h1M7 46h1M11 46h1M15 46h1M19 46h1M23 46h1M27 46h1M31 46h1M35 46h1M39 46h1M41 46h1" />
<path stroke="#c0c0c0" d="M31 6h1M30 7h1M21 8h1M31 8h1M23 9h1M30 9h1M38 9h1M38 11h1M27 12h1M34 13h1M36 13h1M15 14h1M23 14h1M38 14h1M45 14h1M22 15h1M32 15h1M36 15h1M39 15h1M44 15h1M46 15h1M21 16h1M38 17h1M41 18h1M40 19h1M19 20h1M42 20h1M40 21h1M42 21h1M16 23h1M20 23h1M22 23h1M24 23h1M26 23h1M32 23h1M40 23h1M42 23h1M48 23h1M13 24h1M15 24h1M47 24h1M20 25h1M22 25h1M24 25h1M26 25h1M28 25h1M42 25h1M17 26h1M16 27h1M18 27h1M20 27h1M22 27h1M24 27h1M26 27h1M28 27h1M30 27h1M32 27h1M36 27h1M38 27h1M40 27h1M14 29h1M16 29h1M18 29h1M20 29h1M22 29h1M24 29h1M26 29h1M28 29h1M30 29h1M32 29h1M34 29h1M38 29h1M17 30h1M21 30h1M25 30h1M29 30h1M33 30h1M12 31h1M14 31h1M16 31h1M18 31h1M20 31h1M22 31h1M24 31h1M26 31h1M28 31h1M30 31h1M32 31h1M34 31h1M36 31h1M38 31h1M45 31h1M11 32h1M44 32h1M10 33h1M12 33h1M14 33h1M16 33h1M18 33h1M20 33h1M22 33h1M24 33h1M26 33h1M28 33h1M30 33h1M32 33h1M34 33h1M36 33h1M38 33h1M42 33h1M3 34h1M13 34h1M21 34h1M29 34h1M37 34h1M2 35h1M4 35h1M6 35h1M8 35h1M10 35h1M12 35h1M14 35h1M16 35h1M18 35h1M20 35h1M22 35h1M24 35h1M26 35h1M28 35h1M30 35h1M32 35h1M34 35h1M36 35h1M38 35h1M40 35h1M42 35h1M1 36h1M2 37h1M4 37h1M6 37h1M8 37h1M10 37h1M12 37h1M14 37h1M16 37h1M18 37h1M20 37h1M22 37h1M24 37h1M26 37h1M28 37h1M30 37h1M32 37h1M34 37h1M36 37h1M38 37h1M40 37h1M42 37h1M44 37h1M5 38h1M9 38h1M13 38h1M17 38h1M21 38h1M25 38h1M29 38h1M33 38h1M37 38h1M41 38h1M0 39h1M2 39h1M4 39h1M6 39h1M8 39h1M10 39h1M12 39h1M14 39h1M16 39h1M18 39h1M20 39h1M22 39h1M24 39h1M26 39h1M28 39h1M30 39h1M32 39h1M34 39h1M36 39h1M38 39h1M40 39h1M42 39h1M44 39h1M46 39h1M0 41h1M2 41h1M4 41h1M6 41h1M8 41h1M10 41h1M12 41h1M14 41h1M16 41h1M18 41h1M20 41h1M22 41h1M24 41h1M26 41h1M28 41h1M30 41h1M32 41h1M34 41h1M36 41h1M38 41h1M40 41h1M42 41h1M46 41h1M5 42h1M13 42h1M21 42h1M29 42h1M37 42h1M2 43h1M4 43h1M6 43h1M8 43h1M10 43h1M12 43h1M14 43h1M16 43h1M18 43h1M20 43h1M22 43h1M24 43h1M26 43h1M28 43h1M30 43h1M32 43h1M34 43h1M36 43h1M38 43h1M40 43h1M42 43h1M44 43h1M1 44h1M2 45h1M4 45h1M6 45h1M8 45h1M10 45h1M12 45h1M14 45h1M16 45h1M18 45h1M20 45h1M22 45h1M24 45h1M26 45h1M28 45h1M30 45h1M32 45h1M34 45h1M36 45h1M38 45h1M40 45h1M42 45h1M46 45h1M3 46h1M9 46h1M13 46h1M17 46h1M21 46h1M25 46h1M29 46h1M33 46h1M37 46h1M45 46h1M6 47h1M8 47h1M10 47h1M12 47h1M14 47h1M16 47h1M18 47h1M20 47h1M22 47h1M24 47h1M26 47h1M28 47h1M30 47h1M32 47h1M34 47h1M36 47h1M38 47h1M40 47h1M42 47h1" />
<path stroke="#3d3d3d" d="M40 8h1M28 12h1M32 12h1M24 16h1M28 16h1M32 16h1M36 16h1M20 20h1M28 20h1M36 20h1M40 20h1M28 24h1M32 24h1M36 24h1M40 24h1M21 25h1M25 25h1M18 26h1M20 26h1M22 26h1M24 26h1M26 26h1M34 26h1M15 27h1M17 27h1M19 27h1M21 27h1M23 27h1M25 27h1M27 27h1M14 28h1M16 28h1M18 28h1M20 28h3M24 28h1M26 28h1M28 28h1M30 28h1M34 28h1M36 28h1M40 28h1M13 29h1M15 29h1M17 29h1M19 29h1M21 29h1M23 29h1M25 29h1M27 29h1M29 29h1M33 29h1M35 29h1M37 29h1M39 29h1M12 30h1M14 30h1M16 30h1M18 30h1M20 30h1M22 30h1M24 30h1M26 30h1M28 30h1M30 30h1M32 30h1M34 30h1M36 30h4M13 31h1M15 31h1M17 31h1M19 31h1M21 31h1M23 31h1M25 31h1M27 31h1M29 31h1M31 31h1M33 31h1M35 31h1M37 31h1M39 31h1M12 32h3M16 32h3M20 32h3M24 32h3M28 32h3M32 32h3M36 32h6M5 33h1M7 33h1M9 33h1M11 33h1M13 33h1M15 33h1M17 33h1M19 33h1M21 33h1M23 33h1M25 33h1M27 33h1M29 33h1M31 33h1M33 33h1M35 33h1M37 33h1M39 33h1M41 33h1M4 34h1M6 34h1M8 34h3M12 34h1M14 34h1M16 34h1M18 34h1M20 34h1M22 34h1M24 34h1M26 34h1M28 34h1M30 34h1M32 34h1M34 34h1M36 34h1M38 34h5M3 35h1M5 35h1M7 35h1M9 35h1M11 35h1M13 35h1M15 35h1M17 35h1M19 35h1M21 35h1M23 35h1M25 35h1M27 35h1M29 35h1M31 35h1M33 35h1M35 35h1M37 35h1M39 35h1M41 35h1M2 36h1M4 36h3M8 36h3M12 36h3M16 36h1M18 36h1M20 36h3M24 36h1M26 36h1M28 36h3M32 36h1M34 36h1M36 36h7M1 37h1M3 37h1M5 37h1M7 37h1M9 37h1M11 37h1M13 37h1M15 37h1M17 37h1M19 37h1M21 37h1M23 37h1M25 37h1M27 37h1M29 37h1M31 37h1M33 37h1M35 37h1M37 37h1M39 37h1M41 37h1M43 37h1M2 38h1M4 38h1M6 38h1M8 38h1M10 38h1M12 38h1M14 38h1M16 38h1M18 38h1M20 38h1M22 38h1M24 38h1M26 38h1M28 38h1M30 38h1M32 38h1M34 38h1M36 38h1M38 38h1M40 38h1M42 38h3M1 39h1M3 39h1M5 39h1M7 39h1M9 39h1M11 39h1M13 39h1M15 39h1M17 39h1M19 39h1M21 39h1M23 39h1M25 39h1M27 39h1M29 39h1M31 39h1M33 39h1M35 39h1M37 39h1M39 39h1M41 39h1M43 39h1M45 39h1M0 40h3M4 40h3M8 40h3M12 40h3M16 40h3M20 40h3M24 40h3M28 40h3M32 40h3M36 40h3M40 40h7M1 41h1M3 41h1M5 41h1M7 41h1M9 41h1M11 41h1M13 41h1M15 41h1M17 41h1M19 41h1M21 41h1M23 41h1M25 41h1M27 41h1M29 41h1M31 41h1M33 41h1M35 41h1M37 41h1M39 41h1M41 41h1M43 41h1M45 41h1M47 41h1M2 42h1M4 42h1M6 42h1M8 42h1M10 42h1M12 42h1M14 42h1M16 42h1M18 42h1M20 42h1M22 42h1M24 42h1M26 42h1M28 42h1M30 42h1M32 42h1M34 42h1M36 42h1M38 42h1M40 42h1M42 42h3M46 42h2M1 43h1M3 43h1M5 43h1M7 43h1M9 43h1M11 43h1M13 43h1M15 43h1M17 43h1M19 43h1M21 43h1M23 43h1M25 43h1M27 43h1M29 43h1M31 43h1M33 43h1M35 43h1M37 43h1M39 43h1M41 43h1M43 43h1M45 43h1M2 44h1M4 44h3M8 44h1M10 44h1M12 44h3M16 44h1M18 44h1M20 44h3M24 44h1M26 44h1M28 44h3M32 44h1M34 44h1M36 44h3M40 44h1M42 44h5M3 45h1M5 45h1M7 45h1M9 45h1M11 45h1M13 45h1M15 45h1M17 45h1M19 45h1M21 45h1M23 45h1M25 45h1M27 45h1M29 45h1M31 45h1M33 45h1M35 45h1M37 45h1M39 45h1M41 45h1M43 45h1M45 45h1M4 46h1M6 46h1M8 46h1M10 46h1M12 46h1M14 46h1M16 46h1M18 46h1M20 46h1M22 46h1M24 46h1M26 46h1M28 46h1M30 46h1M32 46h1M34 46h1M36 46h1M38 46h1M40 46h1M42 46h3M5 47h1M7 47h1M9 47h1M11 47h1M13 47h1M15 47h1M17 47h1M19 47h1M21 47h1M23 47h1M25 47h1M27 47h1M29 47h1M31 47h1M33 47h1M35 47h1M37 47h1M39 47h1M41 47h1M43 47h1" />
</svg>