<svg xmlns="http://www.w3.org/2000/svg" viewBox="0 -0.5 50 50" shape-rendering="crispEdges">
<metadata>Made with Pixels to Svg https://codepen.io/shshaw/pen/XbxvNj</metadata>
<path stroke="#000000" d="M21 1h8M18 2h14M16 3h18M15 4h20M14 5h22M13 6h24M12 7h26M11 8h28M11 9h10M29 9h10M10 10h10M30 10h10M10 11h9M31 11h9M10 12h8M32 12h8M9 13h8M33 13h8M9 14h8M33 14h8M9 15h8M33 15h8M9 16h8M33 16h8M9 17h8M33 17h8M9 18h8M33 18h8M9 19h8M33 19h8M10 20h8M33 20h8M10 21h8M32 21h8M10 22h9M31 22h9M10 23h10M30 23h10M11 24h11M28 24h11M11 25h28M12 26h26M12 27h26M13 28h24M13 29h24M14 30h22M14 31h22M15 32h20M15 33h20M16 34h18M16 35h18M17 36h16M17 37h16M18 38h14M19 39h12M19 40h12M20 41h10M20 42h10M21 43h8M22 44h6M22 45h6M23 46h4M24 47h2M24 48h2" />
</svg>