<svg xmlns="http://www.w3.org/2000/svg" viewBox="0 -0.5 50 50" shape-rendering="crispEdges">
<metadata>Made with Pixels to Svg https://codepen.io/shshaw/pen/XbxvNj</metadata>
<path stroke="#c0c0c0" d="M34 5h1M36 5h1M38 5h1M30 7h1M32 7h1M34 7h1M36 7h1M38 7h1M40 7h1M29 8h1M33 8h1M39 8h1M30 9h1M40 9h1M31 10h1M28 11h1M30 11h1M41 11h1M28 13h1M30 13h1M42 13h1M29 14h1M41 14h1M41 15h2M43 16h1M40 17h1M42 17h1M0 19h1M2 19h1M4 19h1M6 19h1M8 19h1M10 19h1M12 19h1M14 19h1M16 19h1M18 19h1M20 19h1M22 19h1M24 19h1M26 19h1M28 19h1M30 19h1M32 19h1M34 19h1M36 19h1M38 19h1M40 19h2M39 20h1M3 21h3M7 21h3M11 21h3M15 21h3M19 21h3M23 21h3M27 21h2M31 21h3M35 21h1M5 24h1M7 24h1M9 24h1M11 24h1M13 24h1M15 24h1M17 24h1M19 24h1M21 24h1M23 24h1M25 24h1M33 24h1M35 24h1M43 24h1M4 25h1M6 25h1M10 25h1M12 25h1M14 25h1M18 25h1M20 25h1M22 25h1M42 25h1M31 26h1M41 26h1M15 30h1M17 30h1M19 30h1M21 30h1M23 30h1M25 30h1M27 30h1M29 30h1M31 30h1M33 30h1M35 30h1M37 30h1M39 30h1M41 30h1M43 30h1M14 31h1M16 31h1M18 31h1M20 31h1M22 31h1M24 31h1M26 31h1M28 31h1M30 31h1M32 31h1M34 31h1M36 31h1M38 31h1M40 31h1M42 31h1M44 31h1M46 31h1M13 32h1M15 32h1M19 32h1M23 32h1M27 32h1M31 32h1M35 32h1M39 32h1M47 32h1M46 33h1M48 33h1M48 35h2M6 36h1M14 36h1M16 36h1M22 36h1M24 36h1M1 37h1M5 37h1M9 37h1M17 37h1M21 37h1M25 37h1M29 37h1M2 38h1M4 38h1M8 38h1M16 38h1M18 38h1M20 38h1M24 38h1M26 38h1M28 38h1M49 38h1M36 39h1M38 39h1M46 39h1M48 39h1M39 40h1M38 41h1M40 41h1M44 41h1M46 41h1M47 42h1M40 43h1M42 43h1M44 43h1" />
<path stroke="#3d3d3d" d="M35 5h1M37 5h1M32 6h1M34 6h1M36 6h1M38 6h2M31 7h1M33 7h1M35 7h1M37 7h1M39 7h1M41 7h1M30 8h1M32 8h1M40 8h3M29 9h1M31 9h1M41 9h1M30 10h1M42 10h2M29 11h1M43 11h1M28 12h3M42 12h2M29 13h1M43 13h1M42 14h2M43 15h1M41 16h2M41 17h1M38 18h1M40 18h2M1 19h1M3 19h1M5 19h1M7 19h1M9 19h1M11 19h1M13 19h1M15 19h1M17 19h1M19 19h1M21 19h1M23 19h1M25 19h1M27 19h1M29 19h1M31 19h1M33 19h1M35 19h1M37 19h1M39 19h1M0 20h3M4 20h3M8 20h3M12 20h3M16 20h3M20 20h3M24 20h3M28 20h3M32 20h3M36 20h3M6 24h1M8 24h1M10 24h1M12 24h1M14 24h1M16 24h1M18 24h1M20 24h1M22 24h1M24 24h1M26 24h1M34 24h1M36 24h1M5 25h1M7 25h1M9 25h1M11 25h1M13 25h1M15 25h1M17 25h1M19 25h1M21 25h1M23 25h1M25 25h1M27 25h1M32 25h2M35 25h1M37 25h1M41 25h1M43 25h1M4 26h1M6 26h1M8 26h1M10 26h1M12 26h1M14 26h1M16 26h1M18 26h1M20 26h1M22 26h1M24 26h1M26 26h1M32 26h5M42 26h3M14 30h1M16 30h1M18 30h1M20 30h1M22 30h1M24 30h1M26 30h1M28 30h1M30 30h1M32 30h1M34 30h1M36 30h1M38 30h1M40 30h1M42 30h1M44 30h1M13 31h1M15 31h1M17 31h1M19 31h1M21 31h1M23 31h1M25 31h1M27 31h1M29 31h1M31 31h1M33 31h1M35 31h1M37 31h1M39 31h1M41 31h1M43 31h1M45 31h1M14 32h1M16 32h3M20 32h1M22 32h1M24 32h3M28 32h1M30 32h1M32 32h3M36 32h1M38 32h1M40 32h3M44 32h3M45 33h1M47 33h1M46 34h3M47 35h1M36 36h2M48 36h1M37 37h1M47 37h1M49 37h1M36 38h2M48 38h1M37 39h1M47 39h1M37 40h2M46 40h3M37 41h1M39 41h1M45 41h1M47 41h1M38 42h1M40 42h1M42 42h3M46 42h1M41 43h1M43 43h1M45 43h1" />
<path stroke="#808080" d="M33 6h1M35 6h1M37 6h1M40 6h1M31 8h1M42 9h1M28 10h2M41 10h1M42 11h1M40 16h1M39 18h1M42 18h1M3 20h1M7 20h1M11 20h1M15 20h1M19 20h1M23 20h1M27 20h1M31 20h1M35 20h1M29 21h1M8 25h1M16 25h1M24 25h1M26 25h1M31 25h1M34 25h1M36 25h1M44 25h1M5 26h1M7 26h1M9 26h1M11 26h1M13 26h1M15 26h1M17 26h1M19 26h1M21 26h1M23 26h1M25 26h1M27 26h1M37 26h1M21 32h1M29 32h1M37 32h1M43 32h1M4 36h1M8 36h1M20 36h1M28 36h1M47 36h1M49 36h1M36 37h1M48 37h1M6 38h1M14 38h1M22 38h1M38 38h1M47 38h1M36 40h1M41 41h1M39 42h1M41 42h1M45 42h1M39 43h1" />
<path stroke="rgba(255,255,255,0.00392156862745098)" d="M43 17h1" />
<path stroke="rgba(255,255,255,0.13333333333333333)" d="M34 21h1" />
<path stroke="rgba(255,255,255,0.027450980392156862)" d="M30 25h1" />
<path stroke="rgba(255,255,255,0.07058823529411765)" d="M30 26h1" />
</svg>