<svg xmlns="http://www.w3.org/2000/svg" viewBox="0 -0.5 50 50" shape-rendering="crispEdges">
<metadata>Made with Pixels to Svg https://codepen.io/shshaw/pen/XbxvNj</metadata>
<path stroke="#cdcdcd" d="M22 6h1M24 6h1M26 6h1M28 6h1M27 7h1M29 7h1M18 8h1M20 8h1M22 8h1M24 8h1M26 8h1M28 8h1M32 8h1M25 9h1M31 9h1M33 9h1M16 10h1M18 10h1M20 10h1M22 10h1M24 10h1M26 10h1M28 10h1M30 10h1M34 10h1M33 11h1M16 12h1M18 12h1M20 12h1M22 12h1M24 12h1M26 12h1M28 12h1M30 12h1M32 12h1M33 13h1M35 13h1M41 13h1M14 14h1M16 14h1M18 14h1M20 14h1M22 14h1M24 14h1M26 14h1M28 14h1M30 14h1M34 14h1M36 14h1M38 14h1M43 15h1M45 15h1M10 16h1M14 16h1M16 16h1M18 16h1M20 16h1M22 16h1M24 16h1M26 16h1M28 16h1M30 16h1M32 16h1M34 16h1M36 16h1M38 16h1M40 16h1M42 16h1M9 17h1M13 17h1M17 17h1M25 17h1M33 17h1M41 17h1M47 17h1M8 18h1M10 18h1M12 18h1M14 18h1M16 18h1M18 18h1M20 18h1M22 18h1M24 18h1M26 18h1M28 18h1M30 18h1M32 18h1M34 18h1M36 18h1M38 18h1M40 18h1M42 18h1M44 18h1M48 18h1M5 19h1M47 19h1M2 20h1M4 20h1M6 20h1M8 20h1M10 20h1M12 20h1M14 20h1M16 20h1M18 20h1M20 20h1M22 20h1M24 20h1M26 20h1M28 20h1M30 20h1M32 20h1M34 20h1M36 20h1M38 20h1M40 20h1M42 20h1M44 20h1M5 21h1M45 21h1M47 21h1M2 22h1M4 22h1M6 22h1M8 22h1M10 22h1M12 22h1M14 22h1M16 22h1M18 22h1M20 22h1M22 22h1M24 22h1M26 22h1M28 22h1M30 22h1M32 22h1M34 22h1M36 22h1M38 22h1M40 22h1M42 22h1M44 22h1M47 23h1M0 24h1M2 24h1M4 24h1M6 24h1M8 24h1M10 24h1M12 24h1M14 24h1M16 24h1M18 24h1M20 24h1M22 24h1M24 24h1M26 24h1M28 24h1M30 24h1M32 24h1M34 24h1M36 24h1M38 24h1M40 24h1M42 24h1M44 24h1M1 25h1M9 25h1M17 25h1M25 25h1M33 25h1M41 25h1M45 25h1M47 25h1M2 26h1M4 26h1M6 26h1M8 26h1M10 26h1M12 26h1M14 26h1M16 26h1M18 26h1M20 26h1M22 26h1M24 26h1M26 26h1M28 26h1M30 26h1M32 26h1M34 26h1M36 26h1M38 26h1M40 26h1M42 26h1M44 26h1M43 27h1M45 27h1M2 28h1M4 28h1M6 28h1M8 28h1M10 28h1M12 28h1M14 28h1M16 28h1M18 28h1M20 28h1M22 28h1M24 28h1M26 28h1M28 28h1M30 28h1M32 28h1M34 28h1M36 28h1M38 28h1M40 28h1M42 28h1M5 29h1M13 29h1M21 29h1M29 29h1M37 29h1M41 29h1M43 29h1M6 30h1M10 30h1M22 30h1M26 30h1M30 30h1M38 30h1M40 30h1M41 38h1" />
<path stroke="#e6e6e6" d="M25 6h1M27 6h1M21 7h1M23 7h1M25 7h2M28 7h1M30 7h1M19 8h1M21 8h1M23 8h1M25 8h1M27 8h1M29 8h1M31 8h1M17 9h1M19 9h1M21 9h1M23 9h1M27 9h1M29 9h2M32 9h1M17 10h1M19 10h1M21 10h1M23 10h1M25 10h1M27 10h1M29 10h1M31 10h1M33 10h1M15 11h1M17 11h1M19 11h1M21 11h1M23 11h1M25 11h1M27 11h1M29 11h1M31 11h2M34 11h2M15 12h1M17 12h1M19 12h1M21 12h1M23 12h1M25 12h1M27 12h1M29 12h1M31 12h1M33 12h1M35 12h1M15 13h1M17 13h1M19 13h1M21 13h1M23 13h1M25 13h1M27 13h1M29 13h1M31 13h1M34 13h1M36 13h2M39 13h2M42 13h2M15 14h1M17 14h1M19 14h1M21 14h1M23 14h1M25 14h1M27 14h1M29 14h1M31 14h3M35 14h1M37 14h1M39 14h3M43 14h1M45 14h1M11 15h3M15 15h1M17 15h1M19 15h1M21 15h1M23 15h1M25 15h1M27 15h1M29 15h1M31 15h1M33 15h1M35 15h1M37 15h1M39 15h1M41 15h1M44 15h1M46 15h1M11 16h1M13 16h1M15 16h1M17 16h1M19 16h1M21 16h1M23 16h1M25 16h1M27 16h1M29 16h1M31 16h1M33 16h1M35 16h1M37 16h1M39 16h1M41 16h1M43 16h1M45 16h1M47 16h1M11 17h2M15 17h1M19 17h1M21 17h1M23 17h1M27 17h1M29 17h1M31 17h1M35 17h1M37 17h1M39 17h1M43 17h2M46 17h1M7 18h1M9 18h1M11 18h1M13 18h1M15 18h1M17 18h1M19 18h1M21 18h1M23 18h1M25 18h1M27 18h1M29 18h1M31 18h1M33 18h1M35 18h1M37 18h1M39 18h1M41 18h1M43 18h1M45 18h1M47 18h1M3 19h1M6 19h2M9 19h1M11 19h1M13 19h3M17 19h1M19 19h1M21 19h1M23 19h1M25 19h1M27 19h1M29 19h1M31 19h1M33 19h1M35 19h1M37 19h1M39 19h1M41 19h1M43 19h1M45 19h2M48 19h1M3 20h1M5 20h1M7 20h1M9 20h1M11 20h1M13 20h1M15 20h1M17 20h1M19 20h1M21 20h1M23 20h1M25 20h1M27 20h1M29 20h1M31 20h1M33 20h1M35 20h1M37 20h1M39 20h1M41 20h1M43 20h1M45 20h1M47 20h1M1 21h1M3 21h1M6 21h2M9 21h1M11 21h1M13 21h1M15 21h1M17 21h1M19 21h1M21 21h1M23 21h1M25 21h1M27 21h1M29 21h1M31 21h1M33 21h1M35 21h1M37 21h1M39 21h1M41 21h1M43 21h1M46 21h1M48 21h1M0 22h2M3 22h1M5 22h1M7 22h1M9 22h1M11 22h1M13 22h1M15 22h1M17 22h1M19 22h1M21 22h1M23 22h1M25 22h1M27 22h1M29 22h1M31 22h1M33 22h1M35 22h1M37 22h1M39 22h1M41 22h1M43 22h1M45 22h1M47 22h1M1 23h1M3 23h1M5 23h1M7 23h1M9 23h1M11 23h1M13 23h1M15 23h1M17 23h1M19 23h1M21 23h1M23 23h1M25 23h1M27 23h1M29 23h1M31 23h1M33 23h1M35 23h1M37 23h1M39 23h1M41 23h1M43 23h1M45 23h2M48 23h1M1 24h1M3 24h1M5 24h1M7 24h1M9 24h1M11 24h1M13 24h1M15 24h1M17 24h1M19 24h1M21 24h1M23 24h1M25 24h1M27 24h1M29 24h1M31 24h1M33 24h1M35 24h1M37 24h1M39 24h1M41 24h1M43 24h1M45 24h1M47 24h1M3 25h1M5 25h1M7 25h1M11 25h1M13 25h1M15 25h1M19 25h1M21 25h1M23 25h1M27 25h1M29 25h1M31 25h1M35 25h1M37 25h1M39 25h1M43 25h2M46 25h1M48 25h1M0 26h2M3 26h1M5 26h1M7 26h1M9 26h1M11 26h1M13 26h1M15 26h1M17 26h1M19 26h1M21 26h1M23 26h1M25 26h1M27 26h1M29 26h1M31 26h1M33 26h1M35 26h1M37 26h1M39 26h1M41 26h1M43 26h1M45 26h1M47 26h1M1 27h1M3 27h1M5 27h1M7 27h1M9 27h1M11 27h1M13 27h1M15 27h1M17 27h1M19 27h1M21 27h1M23 27h1M25 27h1M27 27h1M29 27h1M31 27h1M33 27h1M35 27h1M37 27h1M39 27h1M41 27h1M44 27h1M46 27h1M3 28h1M5 28h1M7 28h1M9 28h1M11 28h1M13 28h1M15 28h1M17 28h1M19 28h1M21 28h1M23 28h1M25 28h1M27 28h1M29 28h1M31 28h1M33 28h1M35 28h1M37 28h1M39 28h1M41 28h1M43 28h1M45 28h1M3 29h2M7 29h1M9 29h1M11 29h2M15 29h1M17 29h1M19 29h2M23 29h1M25 29h1M27 29h2M31 29h1M33 29h1M35 29h1M39 29h2M42 29h1M44 29h1M8 30h1M12 30h1M20 30h1M24 30h1M28 30h1M39 30h1M41 30h1" />
<path stroke="#ffffff" d="M22 7h1M24 7h1M18 9h1M20 9h1M22 9h1M24 9h1M26 9h1M28 9h1M16 11h1M18 11h1M20 11h1M22 11h1M24 11h1M26 11h1M28 11h1M30 11h1M16 13h1M18 13h1M20 13h1M22 13h1M24 13h1M26 13h1M28 13h1M30 13h1M32 13h1M14 15h1M16 15h1M18 15h1M20 15h1M22 15h1M24 15h1M26 15h1M28 15h1M30 15h1M32 15h1M34 15h1M36 15h1M38 15h1M40 15h1M42 15h1M10 17h1M14 17h1M16 17h1M18 17h1M20 17h1M22 17h1M24 17h1M26 17h1M28 17h1M30 17h1M32 17h1M34 17h1M36 17h1M38 17h1M40 17h1M42 17h1M8 19h1M10 19h1M12 19h1M16 19h1M18 19h1M20 19h1M22 19h1M24 19h1M26 19h1M28 19h1M30 19h1M32 19h1M34 19h1M36 19h1M38 19h1M40 19h1M42 19h1M44 19h1M2 21h1M4 21h1M8 21h1M10 21h1M12 21h1M14 21h1M16 21h1M18 21h1M20 21h1M22 21h1M24 21h1M26 21h1M28 21h1M30 21h1M32 21h1M34 21h1M36 21h1M38 21h1M40 21h1M42 21h1M44 21h1M0 23h1M2 23h1M4 23h1M6 23h1M8 23h1M10 23h1M12 23h1M14 23h1M16 23h1M18 23h1M20 23h1M22 23h1M24 23h1M26 23h1M28 23h1M30 23h1M32 23h1M34 23h1M36 23h1M38 23h1M40 23h1M42 23h1M44 23h1M0 25h1M2 25h1M4 25h1M6 25h1M8 25h1M10 25h1M12 25h1M14 25h1M16 25h1M18 25h1M20 25h1M22 25h1M24 25h1M26 25h1M28 25h1M30 25h1M32 25h1M34 25h1M36 25h1M38 25h1M40 25h1M42 25h1M2 27h1M4 27h1M6 27h1M8 27h1M10 27h1M12 27h1M14 27h1M16 27h1M18 27h1M20 27h1M22 27h1M24 27h1M26 27h1M28 27h1M30 27h1M32 27h1M34 27h1M36 27h1M38 27h1M40 27h1M42 27h1M6 29h1M8 29h1M10 29h1M16 29h1M22 29h1M34 29h1M36 29h1" />
<path stroke="#b3b3b3" d="M30 8h1M32 10h1M34 12h1M42 14h1M44 14h1M12 16h1M44 16h1M46 16h1M45 17h1M46 18h1M46 20h1M48 20h1M46 22h1M48 22h1M46 24h1M48 24h1M46 26h1M44 28h1M14 30h2M17 30h2M32 30h2M35 30h2M19 32h1M6 37h1M8 39h1M45 42h1" />
<path stroke="rgba(255,255,255,0.611764705882353)" d="M38 29h1" />
<path stroke="rgba(255,255,255,0.3843137254901961)" d="M7 30h1" />
<path stroke="rgba(255,255,255,0.047058823529411764)" d="M9 30h1" />
<path stroke="#9a9a9a" d="M16 30h1M34 30h1M14 31h1M32 31h1M19 33h1M15 35h1M24 37h1M42 37h1M43 38h1M5 39h1M40 40h1M4 41h1M9 41h1M22 41h1M9 42h1M27 42h1M4 43h1M9 43h1M27 43h1M40 44h1M6 45h1" />
<path stroke="rgba(255,255,255,0.1843137254901961)" d="M23 30h1" />
<path stroke="#4b4b4b" d="M15 31h1M17 31h1M33 31h1M35 31h1M14 32h1M16 32h1M18 32h1M32 32h1M34 32h1M36 32h1M36 33h1M16 34h1M18 34h1M34 34h3M6 38h1M24 38h1M42 38h1M7 39h1M25 39h1M43 39h1M6 40h1M8 40h1M24 40h2M42 40h2M5 41h1M8 41h1M23 41h1M25 41h1M41 41h1M6 42h1M8 42h1M22 42h1M24 42h1M26 42h1M40 42h1M42 42h1M44 42h1M23 43h1M26 43h1M6 44h1M8 44h1M24 44h2M42 44h2" />
<path stroke="#808080" d="M16 31h1M18 31h1M34 31h1M36 31h1M15 32h1M17 32h1M33 32h1M35 32h1M14 33h3M18 33h1M32 33h1M34 33h2M15 34h1M17 34h1M33 34h1M16 35h1M33 35h2M25 38h1M6 39h1M23 39h2M41 39h2M5 40h1M7 40h1M23 40h1M6 41h2M24 41h1M26 41h1M40 41h1M42 41h1M5 42h1M7 42h1M23 42h1M25 42h1M41 42h1M43 42h1M5 43h4M22 43h1M24 43h2M40 43h3M44 43h1M5 44h1M7 44h1M23 44h1M41 44h1M24 45h2M42 45h1" />
<path stroke="#666666" d="M17 33h1M33 33h1M14 34h1M32 34h1M17 35h1M35 35h1M7 38h1M26 40h1M41 40h1M44 40h1M43 41h2M4 42h1M43 43h1M26 44h1M44 44h1M7 45h1" />
<path stroke="rgba(255,255,255,0.09411764705882353)" d="M7 37h1" />
</svg>