<svg xmlns="http://www.w3.org/2000/svg" viewBox="0 -0.5 50 50" shape-rendering="crispEdges">
<metadata>Made with Pixels to Svg https://codepen.io/shshaw/pen/XbxvNj</metadata>
<path stroke="#000000" d="M16 2h9M13 3h15M11 4h19M10 5h21M8 6h10M23 6h9M7 7h8M26 7h7M7 8h6M28 8h6M6 9h6M29 9h6M5 10h5M30 10h6M4 11h6M31 11h5M4 12h5M32 12h5M4 13h4M33 13h4M3 14h5M33 14h5M3 15h4M33 15h5M3 16h4M34 16h4M2 17h5M34 17h4M2 18h5M34 18h4M2 19h5M34 19h5M2 20h5M34 20h5M2 21h5M34 21h5M2 22h5M34 22h4M3 23h4M34 23h4M3 24h4M34 24h4M3 25h5M33 25h5M3 26h5M33 26h4M4 27h5M32 27h5M4 28h5M32 28h5M5 29h5M31 29h5M5 30h6M30 30h5M6 31h6M28 31h7M7 32h7M27 32h9M8 33h9M24 33h13M9 34h29M11 35h28M12 36h16M31 36h9M15 37h11M32 37h9M33 38h9M34 39h9M35 40h9M36 41h9M37 42h9M38 43h9M39 44h8M40 45h6M41 46h4M42 47h2" />
</svg>