<svg xmlns="http://www.w3.org/2000/svg" viewBox="0 -0.5 50 50" shape-rendering="crispEdges">
<metadata>Made with Pixels to Svg https://codepen.io/shshaw/pen/XbxvNj</metadata>
<path stroke="#808080" d="M21 4h1M23 4h2M20 5h1M24 5h1M27 5h1M16 6h2M19 6h1M21 6h1M23 6h1M25 6h1M15 7h1M14 8h1M19 8h1M23 8h1M27 8h1M34 8h2M39 8h1M13 9h1M16 9h1M20 9h1M24 9h1M28 9h1M36 9h1M38 9h1M41 9h1M13 10h1M15 10h1M17 10h1M19 10h1M21 10h1M23 10h1M25 10h1M27 10h1M29 10h1M31 10h1M33 10h1M35 10h1M37 10h1M42 10h1M18 11h1M26 11h1M34 11h1M40 11h1M6 12h2M9 12h2M15 12h1M19 12h1M23 12h1M27 12h1M31 12h1M35 12h1M39 12h1M43 12h1M10 13h1M12 13h1M16 13h1M20 13h1M24 13h1M28 13h1M32 13h1M36 13h1M40 13h1M42 13h1M3 14h1M5 14h1M7 14h1M13 14h1M15 14h1M17 14h1M19 14h1M21 14h1M23 14h1M25 14h1M27 14h1M29 14h1M31 14h1M33 14h1M35 14h1M37 14h1M39 14h1M10 15h1M42 15h1M3 16h1M7 16h1M15 16h1M19 16h1M23 16h1M27 16h1M31 16h1M35 16h1M39 16h1M45 16h1M1 17h1M4 17h1M8 17h1M10 17h1M12 17h1M16 17h1M20 17h1M24 17h1M28 17h1M32 17h1M36 17h1M40 17h1M46 17h1M1 18h1M3 18h1M5 18h1M7 18h1M9 18h1M13 18h1M15 18h1M17 18h1M19 18h1M21 18h1M23 18h1M25 18h1M29 18h1M31 18h1M33 18h1M35 18h1M37 18h1M39 18h1M41 18h1M43 18h1M2 19h1M10 19h1M18 19h1M21 19h2M26 19h1M34 19h1M42 19h1M46 19h1M1 20h1M3 20h1M7 20h1M11 20h1M15 20h1M19 20h1M21 20h1M23 20h1M27 20h1M31 20h1M35 20h1M39 20h1M43 20h1M1 21h1M4 21h1M8 21h1M12 21h1M16 21h1M18 21h8M32 21h1M36 21h1M40 21h1M44 21h1M46 21h1M48 21h1M3 22h1M5 22h1M7 22h1M9 22h1M11 22h1M13 22h1M15 22h1M17 22h1M19 22h6M29 22h1M31 22h1M33 22h1M35 22h1M37 22h1M39 22h1M41 22h1M43 22h1M17 23h7M25 23h1M46 23h1M7 24h1M11 24h1M16 24h4M21 24h3M31 24h1M35 24h1M39 24h1M43 24h1M4 25h1M8 25h1M12 25h1M15 25h7M23 25h1M26 25h1M28 25h1M32 25h1M36 25h1M40 25h1M44 25h1M47 25h1M15 26h6M29 26h1M37 26h1M45 26h1M15 27h5M21 27h1M23 27h6M14 28h2M17 28h3M21 28h6M13 29h5M19 29h7M19 30h3M23 30h2M6 31h2M19 31h1M21 31h1M33 31h1M35 31h1M5 32h1M17 32h3M31 32h1M33 32h2M44 32h2M17 33h1M19 33h1M31 33h3M43 33h1M3 34h1M16 34h2M23 34h1M30 34h3M44 34h1M15 35h1M29 35h3M33 35h1M42 35h2M14 36h1M21 36h1M29 36h3M33 36h3M41 36h1M13 37h1M31 37h3M41 37h1M7 38h1M20 38h1M31 38h2M7 39h1M30 39h2M5 40h1M29 40h1M38 40h1M28 44h1M27 45h1" />
<path stroke="#545454" d="M22 4h1M19 5h1M21 5h1M23 5h1M25 5h1M18 6h1M20 6h1M22 6h1M24 6h1M26 6h3M17 7h1M19 7h1M21 7h1M23 7h1M25 7h1M27 7h1M29 7h1M15 8h4M20 8h3M24 8h3M28 8h3M36 8h3M15 9h1M17 9h1M19 9h1M21 9h1M23 9h1M25 9h1M27 9h1M29 9h1M31 9h1M33 9h1M35 9h1M37 9h1M39 9h2M14 10h1M16 10h1M18 10h1M20 10h1M22 10h1M24 10h1M26 10h1M28 10h1M30 10h1M32 10h1M34 10h1M36 10h1M38 10h4M13 11h1M15 11h1M17 11h1M19 11h1M21 11h1M23 11h1M25 11h1M27 11h1M29 11h1M31 11h1M33 11h1M35 11h1M37 11h1M39 11h1M41 11h2M8 12h1M12 12h3M16 12h3M20 12h3M24 12h3M28 12h3M32 12h3M36 12h3M41 12h2M5 13h1M7 13h3M11 13h1M13 13h1M15 13h1M17 13h1M19 13h1M21 13h1M23 13h1M25 13h1M27 13h1M29 13h1M31 13h1M33 13h1M35 13h1M37 13h1M39 13h1M41 13h1M43 13h1M4 14h1M6 14h1M8 14h5M14 14h1M16 14h1M18 14h1M20 14h1M22 14h1M24 14h1M26 14h1M28 14h1M30 14h1M32 14h1M34 14h1M36 14h1M38 14h1M40 14h4M3 15h1M5 15h1M7 15h1M9 15h1M11 15h1M13 15h1M15 15h1M17 15h1M19 15h1M21 15h1M23 15h1M25 15h1M27 15h1M29 15h1M31 15h1M33 15h1M35 15h1M37 15h1M39 15h1M41 15h1M43 15h1M2 16h1M4 16h3M8 16h7M16 16h3M20 16h3M24 16h3M28 16h3M32 16h3M36 16h3M40 16h5M3 17h1M5 17h1M7 17h1M9 17h1M11 17h1M13 17h1M15 17h1M17 17h1M19 17h1M21 17h1M23 17h1M25 17h1M27 17h1M29 17h1M31 17h1M33 17h1M35 17h1M37 17h1M39 17h1M41 17h1M43 17h3M2 18h1M4 18h1M6 18h1M8 18h1M10 18h3M14 18h1M16 18h1M18 18h1M20 18h1M22 18h1M24 18h1M26 18h3M30 18h1M32 18h1M34 18h1M36 18h1M38 18h1M40 18h1M42 18h1M44 18h4M1 19h1M3 19h1M5 19h1M7 19h1M9 19h1M11 19h1M13 19h1M15 19h1M17 19h1M19 19h1M23 19h1M25 19h1M27 19h1M29 19h1M31 19h1M33 19h1M35 19h1M37 19h1M39 19h1M41 19h1M43 19h1M45 19h1M47 19h1M2 20h1M4 20h3M8 20h3M12 20h3M16 20h3M20 20h1M22 20h1M24 20h1M26 20h1M29 20h2M32 20h3M36 20h3M40 20h3M44 20h5M3 21h1M5 21h1M7 21h1M9 21h1M11 21h1M13 21h1M15 21h1M17 21h1M27 21h3M31 21h1M33 21h1M35 21h1M37 21h1M39 21h1M41 21h1M43 21h1M45 21h1M47 21h1M2 22h1M4 22h1M6 22h1M8 22h1M10 22h1M12 22h1M14 22h1M16 22h1M18 22h1M27 22h2M30 22h1M32 22h1M34 22h1M36 22h1M38 22h1M40 22h1M42 22h1M44 22h5M3 23h1M5 23h1M7 23h1M9 23h1M11 23h1M13 23h1M15 23h1M26 23h2M29 23h1M31 23h1M33 23h1M35 23h1M37 23h1M39 23h1M41 23h1M43 23h1M45 23h1M47 23h1M3 24h4M8 24h3M12 24h4M20 24h1M24 24h7M32 24h3M36 24h3M40 24h3M44 24h4M5 25h1M7 25h1M9 25h1M11 25h1M13 25h1M24 25h2M27 25h1M29 25h1M31 25h1M33 25h1M35 25h1M37 25h1M39 25h1M41 25h1M43 25h1M45 25h2M6 26h9M22 26h7M30 26h7M38 26h7M16 28h1M20 28h1M7 30h1M22 30h1M6 32h1M20 32h1M32 32h1M5 33h1M44 33h1M4 34h1M18 34h1M24 34h1M43 34h1M23 35h1M22 36h1M28 36h1M32 36h1M36 36h1M42 36h1M21 37h1M39 39h1M6 40h1M28 45h1" />
<path stroke="#d5d5d5" d="M18 5h1M29 6h1M12 11h1M4 13h1M2 15h1M48 19h1M1 22h1M39 30h1M36 31h1M39 31h1M11 33h1M37 33h1M11 34h1M9 35h1M9 36h1M22 37h1M1 38h1M25 40h1M11 41h1M17 41h1M24 41h1M11 42h1M17 42h1M23 42h1M27 42h1M37 42h1M9 43h2M17 43h1M23 43h1M35 43h1M9 44h1M15 44h1M35 44h1M1 45h1M8 45h2M15 45h1M35 45h1M8 46h1" />
<path stroke="#abacab" d="M22 5h1M26 5h1M16 7h1M18 7h1M20 7h1M22 7h1M24 7h1M26 7h1M28 7h1M30 7h1M31 8h1M14 9h1M18 9h1M22 9h1M26 9h1M30 9h1M32 9h1M34 9h1M14 11h1M16 11h1M20 11h1M22 11h1M24 11h1M28 11h1M30 11h1M32 11h1M36 11h1M38 11h1M6 13h1M14 13h1M18 13h1M22 13h1M26 13h1M30 13h1M34 13h1M38 13h1M4 15h1M6 15h1M8 15h1M12 15h1M14 15h1M16 15h1M18 15h1M20 15h1M22 15h1M24 15h1M26 15h1M28 15h1M30 15h1M32 15h1M34 15h1M36 15h1M38 15h1M40 15h1M2 17h1M6 17h1M14 17h1M18 17h1M22 17h1M26 17h1M30 17h1M34 17h1M38 17h1M42 17h1M4 19h1M6 19h1M8 19h1M12 19h1M14 19h1M16 19h1M20 19h1M24 19h1M28 19h1M30 19h1M32 19h1M36 19h1M38 19h1M40 19h1M44 19h1M25 20h1M2 21h1M6 21h1M10 21h1M14 21h1M26 21h1M30 21h1M34 21h1M38 21h1M42 21h1M25 22h1M2 23h1M4 23h1M6 23h1M8 23h1M10 23h1M12 23h1M14 23h1M16 23h1M24 23h1M28 23h1M30 23h1M32 23h1M34 23h1M36 23h1M38 23h1M40 23h1M42 23h1M44 23h1M48 23h1M3 25h1M6 25h1M10 25h1M14 25h1M22 25h1M30 25h1M34 25h1M38 25h1M42 25h1M5 26h1M21 26h1M13 27h2M20 27h1M22 27h1M29 27h1M13 28h1M27 28h1M18 29h1M40 30h1M18 31h1M20 31h1M22 31h2M32 31h1M34 31h1M12 32h1M21 32h1M35 32h1M38 32h1M4 33h1M16 33h1M18 33h1M20 33h1M24 33h1M30 33h1M34 33h1M10 34h1M15 34h1M29 34h1M33 34h1M16 35h2M22 35h1M28 35h1M32 35h1M35 35h2M15 36h1M1 37h1M14 37h1M34 37h1M0 38h1M12 38h1M21 38h1M30 38h1M33 38h1M6 39h1M18 40h1M26 40h1M30 40h1M39 40h1M25 41h1M28 41h1M4 42h1M10 42h1M18 42h1M24 42h1M36 42h1M3 43h1M2 44h1M8 44h1M16 44h1M22 44h1M36 44h1M21 45h1M14 46h1M34 46h1" />
<path stroke="#252525" d="M40 12h1M28 20h1M26 22h1" />
<path stroke="rgba(255,255,255,0.09411764705882353)" d="M39 29h1M42 37h1" />
<path stroke="rgba(255,255,255,0.047058823529411764)" d="M40 29h1M27 43h1" />
<path stroke="rgba(255,255,255,0.21568627450980393)" d="M38 31h1" />
<path stroke="rgba(255,255,255,0.03137254901960784)" d="M4 32h1M7 40h1" />
<path stroke="rgba(255,255,255,0.20392156862745098)" d="M39 32h1M18 43h1M2 45h1" />
<path stroke="rgba(255,255,255,0.17647058823529413)" d="M10 33h1" />
<path stroke="rgba(255,255,255,0.0784313725490196)" d="M38 33h1M36 43h1" />
<path stroke="rgba(255,255,255,0.2627450980392157)" d="M37 34h1" />
<path stroke="rgba(255,255,255,0.30196078431372547)" d="M8 35h1" />
<path stroke="rgba(255,255,255,0.17254901960784313)" d="M8 36h1" />
<path stroke="rgba(255,255,255,0.11764705882352941)" d="M0 37h1M20 39h1" />
<path stroke="rgba(255,255,255,0.36470588235294116)" d="M22 38h1" />
<path stroke="rgba(255,255,255,0.26666666666666666)" d="M21 39h1" />
<path stroke="rgba(255,255,255,0.10588235294117647)" d="M24 40h1M1 46h1" />
<path stroke="rgba(255,255,255,0.3843137254901961)" d="M3 42h1" />
<path stroke="rgba(255,255,255,0.33725490196078434)" d="M25 42h1" />
<path stroke="rgba(255,255,255,0.5450980392156862)" d="M26 42h1" />
<path stroke="rgba(255,255,255,0.34901960784313724)" d="M4 43h1" />
<path stroke="rgba(255,255,255,0.01568627450980392)" d="M22 43h1" />
<path stroke="rgba(255,255,255,0.0392156862745098)" d="M37 43h1" />
<path stroke="rgba(255,255,255,0.19215686274509805)" d="M23 44h1" />
<path stroke="rgba(255,255,255,0.11372549019607843)" d="M27 44h1" />
<path stroke="rgba(255,255,255,0.13333333333333333)" d="M16 45h1" />
</svg>